PathFileType	4	(X/Y/Z)	C:/Users/beibeiliu/ov580/test_trc/User2\sequence.12_training_dense_left.trc
DataRate	CameraRate	NumFrames	NumMarkers	Units	OrigDataRate	OrigDataStartFrame	OrigNumFrames
120	120	7	19	mm	120	279	446
Frame#	Time	ThumbCMC			ThumbMCP			ThumbIP			ThumbTip			IndexMCP			IndexPIP			IndexTip			MiddleMCP			MiddlePIP			MiddleTip			RingMCP			RingPIP			RingTip			PinkyMCP			PinkyPIP			PinkyTip			BackHand1			BackHand2			BackHand3	
		X0	Y0	Z0	X1	Y1	Z1	X2	Y2	Z2	X3	Y3	Z3	X4	Y4	Z4	X5	Y5	Z5	X6	Y6	Z6	X7	Y7	Z7	X8	Y8	Z8	X9	Y9	Z9	X10	Y10	Z10	X11	Y11	Z11	X12	Y12	Z12	X13	Y13	Z13	X14	Y14	Z14	X15	Y15	Z15	X16	Y16	Z16	X17	Y17	Z17	X18	Y18	Z18	
278	2.31667	-216.567	-13.5842	122.488	-223.408	2.96465	87.0524	-225.65	3.69286	51.3799	-219.42	-8.91867	24.3498	-254.474	-56.032	56.5185	-243.969	-44.9725	27.8439	-218.186	-27.1955	17.1713	-248.645	-87.2664	62.2538	-257.788	-94.0956	29.6631	-260.187	-94.7876	-3.66125	-224.956	-102.441	64.6901	-235.613	-111.378	37.1606	-245.21	-111.238	9.88949	-193.658	-107.058	72.6907	-208.239	-119.966	47.6983	-214.827	-129.929	28.6467	-197.446	-87.1217	112.022	-188.332	-76.8336	143.327	-222.132	-58.3595	129.057	
279	2.325	-208.094	-9.31245	119.995	-206.458	2.39251	86.4613	-209.663	8.43826	47.8326	-205.393	-5.10591	23.3781	-251.489	-45.7895	56.1674	-241.39	-34.5246	28.9305	-208.884	-24.2666	17.7478	-253.501	-77.9391	61.2439	-265.006	-80.9535	30.78	-270.248	-82.4076	-0.973852	-235.497	-96.0222	66.2306	-248.868	-102.867	39.5379	-258.685	-99.5271	11.714	-205.675	-105.023	73.5545	-218.155	-116.913	54.9299	-229.263	-127.379	32.6707	-208.353	-82.2111	112.367	-191.704	-80.121	142.67	-220.209	-53.2397	133.888	
280	2.33333	-195.331	-6.25581	120.279	-191.843	5.83265	83.5894	-192.717	3.87197	48.8288	-190.255	-2.91403	23.3362	-245.708	-34.4228	58.7411	-234.253	-31.1423	28.9898	-204.702	-24.1563	16.7177	-256.558	-61.0665	64.9763	-268.254	-65.2143	36.6688	-277.16	-63.2527	1.92501	-240.736	-84.7086	71.4291	-259.777	-87.2613	42.4582	-268.082	-88.2109	13.6273	-216.051	-99.7406	76.8696	-233.33	-109.937	55.9133	-247.786	-116.072	36.5027	-211.268	-79.4808	114.889	-193.152	-78.5883	145.855	-216.093	-47.7174	133.705	
281	2.34167	-183.57	-9.93912	117.512	-176.736	3.94311	80.9955	-174.468	3.13147	49.1482	-177.646	-10.2973	24.5406	-236.587	-23.9164	58.2182	-222.712	-20.1268	25.8823	-192.012	-23.1284	15.0373	-256.796	-47.4864	64.0127	-269.278	-47.8498	32.9452	-275.735	-50.1662	3.68025	-248.358	-70.9379	69.7902	-263.397	-74.7065	46.3085	-274.558	-66.9659	15.8169	-222.681	-94.802	79.6178	-246.393	-95.9742	57.94	-262.867	-102.374	37.9211	-214.83	-72.5755	114.154	-198.75	-74.5357	145.182	-212.866	-40.3287	131.897	
282	2.35	-172.164	-8.2325	114.728	-160.812	-3.72467	83.7163	-158.438	-0.587839	48.3701	-165.376	-14.4181	19.8895	-225.987	-11.6457	53.5869	-212.014	-13.0936	26.7985	-181.139	-26.5516	13.6188	-251.664	-36.0266	62.5027	-264.557	-28.9205	34.5136	-272.453	-30.7638	5.72976	-249.544	-56.2458	70.1961	-265.385	-54.9096	45.851	-276.925	-54.3851	15.433	-233.488	-81.8485	79.6745	-255.009	-85.6991	59.8647	-271.506	-84.3619	41.434	-219.696	-64.1527	116.152	-202.783	-72.305	144.775	-209.656	-30.1158	131.935	
283	2.35833	-161.388	-15.5179	116.43	-150.706	-9.94655	79.9735	-148.174	-10.4433	47.0117	-153.659	-19.4819	21.1243	-213.845	-5.16263	55.84	-202.918	-10.3161	26.4307	-175.986	-30.9478	12.7285	-243.2	-20.3231	62.6608	-256.176	-17.109	35.1821	-266.188	-14.8527	5.33772	-247.11	-47.6131	71.2358	-263.959	-42.9017	46.2037	-273.306	-36.8417	17.7747	-237.146	-73.6168	80.1893	-257.218	-73.6254	62.5887	-275.171	-67.4278	46.6451	-219.705	-60.9067	117.537	-203.725	-61.4578	145.861	-202.42	-24.5107	130.469	
284	2.36667	-152.396	-22.1999	117.391	-138.655	-18.0419	83.8242	-136.592	-16.9629	48.4859	-149.079	-28.0385	24.0574	-203.731	-2.15628	57.3565	-192.455	-13.014	22.5066	-169.379	-33.5866	12.9455	-232.56	-11.8166	64.9599	-244.756	-3.74446	36.4854	-254.058	1.07497	4.66859	-241.353	-33.7565	70.8934	-257.416	-27.2535	48.7791	-265.948	-19.0517	20.1581	-237.782	-59.5895	81.217	-256.13	-57.2807	65.6711	-277.903	-51.2137	44.5752	-216.565	-49.8785	115.435	-206.307	-61.156	149.226	-192.569	-21.3195	130.822	
